<mxfile host="app.diagrams.net" modified="2022-06-28T12:39:12.640Z" agent="5.0 (Windows NT 10.0; Win64; x64) AppleWebKit/537.36 (KHTML, like Gecko) Chrome/103.0.5060.53 Safari/537.36 Edg/103.0.1264.37" etag="zeceOSlRZCF404nxsX8a" version="20.0.3" type="github">
  <diagram id="_0hIWLJ6sQTHO5X9fXYV" name="Page-1">
    <mxGraphModel dx="1406" dy="745" grid="1" gridSize="10" guides="1" tooltips="1" connect="1" arrows="1" fold="1" page="1" pageScale="1" pageWidth="827" pageHeight="1169" math="0" shadow="0">
      <root>
        <mxCell id="0" />
        <mxCell id="1" parent="0" />
        <mxCell id="Mo9y_Z-Vakp0Shs6qQip-2" value="" style="ellipse;html=1;shape=startState;fillColor=#000000;strokeColor=#ff0000;" parent="1" vertex="1">
          <mxGeometry x="200" y="260" width="30" height="30" as="geometry" />
        </mxCell>
        <mxCell id="Mo9y_Z-Vakp0Shs6qQip-3" value="" style="edgeStyle=orthogonalEdgeStyle;html=1;verticalAlign=bottom;endArrow=open;endSize=8;strokeColor=#ff0000;rounded=0;" parent="1" source="Mo9y_Z-Vakp0Shs6qQip-2" target="Mo9y_Z-Vakp0Shs6qQip-4" edge="1">
          <mxGeometry relative="1" as="geometry">
            <mxPoint x="190" y="300" as="targetPoint" />
          </mxGeometry>
        </mxCell>
        <mxCell id="Mo9y_Z-Vakp0Shs6qQip-4" value="&lt;pre style=&quot;font-size: 6px;&quot;&gt;&lt;font style=&quot;font-size: 6px;&quot;&gt;LastFighting&amp;gt;10s&lt;/font&gt;&lt;/pre&gt;" style="rhombus;whiteSpace=wrap;html=1;fillColor=#ffffc0;strokeColor=#ff0000;fontSize=6;fontFamily=Helvetica;fontStyle=0" parent="1" vertex="1">
          <mxGeometry x="150" y="340" width="130" height="60" as="geometry" />
        </mxCell>
        <mxCell id="Mo9y_Z-Vakp0Shs6qQip-5" value="no" style="edgeStyle=orthogonalEdgeStyle;html=1;align=left;verticalAlign=bottom;endArrow=open;endSize=8;strokeColor=#ff0000;rounded=0;" parent="1" source="Mo9y_Z-Vakp0Shs6qQip-4" edge="1">
          <mxGeometry x="-1" relative="1" as="geometry">
            <mxPoint x="215" y="470" as="targetPoint" />
            <Array as="points">
              <mxPoint x="320" y="370" />
              <mxPoint x="320" y="470" />
            </Array>
          </mxGeometry>
        </mxCell>
        <mxCell id="Mo9y_Z-Vakp0Shs6qQip-6" value="yes" style="edgeStyle=orthogonalEdgeStyle;html=1;align=left;verticalAlign=top;endArrow=open;endSize=8;strokeColor=#ff0000;rounded=0;startArrow=none;exitX=0.5;exitY=1;exitDx=0;exitDy=0;entryX=0.5;entryY=0;entryDx=0;entryDy=0;" parent="1" source="Mo9y_Z-Vakp0Shs6qQip-4" edge="1" target="Mo9y_Z-Vakp0Shs6qQip-8">
          <mxGeometry x="-1" y="-36" relative="1" as="geometry">
            <mxPoint x="480" y="490" as="targetPoint" />
            <Array as="points" />
            <mxPoint x="1" y="-10" as="offset" />
          </mxGeometry>
        </mxCell>
        <mxCell id="Mo9y_Z-Vakp0Shs6qQip-9" value="" style="edgeStyle=orthogonalEdgeStyle;html=1;verticalAlign=bottom;endArrow=open;endSize=8;strokeColor=#ff0000;rounded=0;fontFamily=Helvetica;fontSize=6;entryX=0.5;entryY=0;entryDx=0;entryDy=0;exitX=0.5;exitY=1;exitDx=0;exitDy=0;startArrow=none;" parent="1" source="7cOphT0cGEknBKYI4k1w-1" target="7cOphT0cGEknBKYI4k1w-1" edge="1">
          <mxGeometry relative="1" as="geometry">
            <mxPoint x="215" y="500" as="targetPoint" />
          </mxGeometry>
        </mxCell>
        <mxCell id="Mo9y_Z-Vakp0Shs6qQip-12" value="press H" style="rounded=1;whiteSpace=wrap;html=1;arcSize=40;fontColor=#000000;fillColor=#ffffc0;strokeColor=#ff0000;fontFamily=Helvetica;fontSize=6;" parent="1" vertex="1">
          <mxGeometry x="155" y="640" width="120" height="20" as="geometry" />
        </mxCell>
        <mxCell id="Mo9y_Z-Vakp0Shs6qQip-13" value="" style="edgeStyle=orthogonalEdgeStyle;html=1;verticalAlign=bottom;endArrow=open;endSize=8;strokeColor=#ff0000;rounded=0;fontFamily=Helvetica;fontSize=6;entryX=0.5;entryY=0;entryDx=0;entryDy=0;" parent="1" source="Mo9y_Z-Vakp0Shs6qQip-12" edge="1" target="Mo9y_Z-Vakp0Shs6qQip-17">
          <mxGeometry relative="1" as="geometry">
            <mxPoint x="215" y="715" as="targetPoint" />
          </mxGeometry>
        </mxCell>
        <mxCell id="Mo9y_Z-Vakp0Shs6qQip-14" value="location" style="text;html=1;strokeColor=none;fillColor=none;align=center;verticalAlign=middle;whiteSpace=wrap;rounded=0;fontFamily=Helvetica;fontSize=6;" parent="1" vertex="1">
          <mxGeometry x="220" y="300" width="60" height="30" as="geometry" />
        </mxCell>
        <mxCell id="Mo9y_Z-Vakp0Shs6qQip-17" value="location==newLocation&lt;br&gt;&lt;pre&gt;LastFighting&amp;gt;5s&lt;/pre&gt;" style="rhombus;whiteSpace=wrap;html=1;fillColor=#ffffc0;strokeColor=#ff0000;fontFamily=Helvetica;fontSize=6;" parent="1" vertex="1">
          <mxGeometry x="157.5" y="690" width="115" height="60" as="geometry" />
        </mxCell>
        <mxCell id="Mo9y_Z-Vakp0Shs6qQip-18" value="no" style="edgeStyle=orthogonalEdgeStyle;html=1;align=left;verticalAlign=bottom;endArrow=open;endSize=8;strokeColor=#ff0000;rounded=0;fontFamily=Helvetica;fontSize=6;exitX=1;exitY=0.5;exitDx=0;exitDy=0;entryX=1;entryY=0.5;entryDx=0;entryDy=0;" parent="1" source="Mo9y_Z-Vakp0Shs6qQip-17" target="7cOphT0cGEknBKYI4k1w-7" edge="1">
          <mxGeometry x="-0.9389" y="10" relative="1" as="geometry">
            <mxPoint x="390" y="545" as="targetPoint" />
            <Array as="points">
              <mxPoint x="330" y="720" />
              <mxPoint x="330" y="855" />
            </Array>
            <mxPoint x="1" as="offset" />
            <mxPoint x="300" y="685" as="sourcePoint" />
          </mxGeometry>
        </mxCell>
        <mxCell id="Mo9y_Z-Vakp0Shs6qQip-19" value="yes" style="edgeStyle=orthogonalEdgeStyle;html=1;align=left;verticalAlign=top;endArrow=open;endSize=8;strokeColor=#ff0000;rounded=0;fontFamily=Helvetica;fontSize=6;startArrow=none;exitX=0.5;exitY=1;exitDx=0;exitDy=0;entryX=0.5;entryY=0;entryDx=0;entryDy=0;" parent="1" source="Mo9y_Z-Vakp0Shs6qQip-17" target="Mo9y_Z-Vakp0Shs6qQip-20" edge="1">
          <mxGeometry x="-1" y="-36" relative="1" as="geometry">
            <mxPoint x="320" y="780" as="targetPoint" />
            <mxPoint x="1" y="-10" as="offset" />
          </mxGeometry>
        </mxCell>
        <mxCell id="Mo9y_Z-Vakp0Shs6qQip-20" value="press up down&lt;br&gt;delay2000&lt;br&gt;press spacebar" style="rounded=1;whiteSpace=wrap;html=1;arcSize=50;fontColor=#000000;fillColor=#ffffc0;strokeColor=#ff0000;fontFamily=Helvetica;fontSize=6;" parent="1" vertex="1">
          <mxGeometry x="155" y="770" width="120" height="40" as="geometry" />
        </mxCell>
        <mxCell id="Mo9y_Z-Vakp0Shs6qQip-22" value="" style="edgeStyle=orthogonalEdgeStyle;html=1;verticalAlign=bottom;endArrow=open;endSize=8;strokeColor=#ff0000;rounded=0;fontFamily=Helvetica;fontSize=6;entryX=0;entryY=0.5;entryDx=0;entryDy=0;exitX=0;exitY=0.5;exitDx=0;exitDy=0;" parent="1" source="7cOphT0cGEknBKYI4k1w-7" target="Mo9y_Z-Vakp0Shs6qQip-2" edge="1">
          <mxGeometry relative="1" as="geometry">
            <mxPoint x="225" y="630" as="targetPoint" />
            <mxPoint x="150" y="880" as="sourcePoint" />
            <Array as="points">
              <mxPoint x="110" y="855" />
              <mxPoint x="110" y="275" />
            </Array>
          </mxGeometry>
        </mxCell>
        <mxCell id="Mo9y_Z-Vakp0Shs6qQip-8" value="&lt;font color=&quot;#ff0000&quot;&gt;CheckForNpcFollowingMe（）&lt;/font&gt;" style="rounded=1;whiteSpace=wrap;html=1;arcSize=40;fontColor=#000000;fillColor=#ffffc0;strokeColor=#ff0000;fontFamily=Helvetica;fontSize=6;" parent="1" vertex="1">
          <mxGeometry x="127.5" y="420" width="175" height="40" as="geometry" />
        </mxCell>
        <mxCell id="MguSYibimUcMuOLrkouk-2" value="&lt;span style=&quot;font-size: 12px; text-align: left; background-color: initial;&quot;&gt;OnActionEvent(&lt;/span&gt;&lt;span style=&quot;text-align: left; background-color: initial;&quot;&gt;fighting)&lt;br&gt;&lt;span style=&quot;font-size: 6px;&quot;&gt;lastFighting = DateTime.Now;&lt;/span&gt;&lt;br&gt;&lt;/span&gt;" style="rounded=1;whiteSpace=wrap;html=1;arcSize=40;fontColor=#000000;fillColor=#ffffc0;strokeColor=#ff0000;fontFamily=Helvetica;fontSize=6;" parent="1" vertex="1">
          <mxGeometry x="380" y="280" width="120" height="40" as="geometry" />
        </mxCell>
        <mxCell id="MguSYibimUcMuOLrkouk-3" value="" style="edgeStyle=orthogonalEdgeStyle;html=1;verticalAlign=bottom;endArrow=open;endSize=8;strokeColor=#ff0000;rounded=0;fontFamily=Helvetica;fontSize=6;exitX=0;exitY=0.5;exitDx=0;exitDy=0;entryX=0;entryY=0;entryDx=0;entryDy=0;" parent="1" source="MguSYibimUcMuOLrkouk-2" target="Mo9y_Z-Vakp0Shs6qQip-14" edge="1">
          <mxGeometry relative="1" as="geometry">
            <mxPoint x="225" y="310" as="targetPoint" />
            <mxPoint x="225" y="600" as="sourcePoint" />
            <Array as="points">
              <mxPoint x="270" y="300" />
              <mxPoint x="270" y="300" />
            </Array>
          </mxGeometry>
        </mxCell>
        <mxCell id="7cOphT0cGEknBKYI4k1w-1" value="&lt;pre style=&quot;font-size: 6px;&quot;&gt;&lt;font style=&quot;font-size: 6px;&quot;&gt;IsMounted&lt;/font&gt;&lt;/pre&gt;" style="rhombus;whiteSpace=wrap;html=1;fillColor=#ffffc0;strokeColor=#ff0000;fontSize=6;fontFamily=Helvetica;fontStyle=0" vertex="1" parent="1">
          <mxGeometry x="150" y="490" width="130" height="60" as="geometry" />
        </mxCell>
        <mxCell id="7cOphT0cGEknBKYI4k1w-3" value="" style="edgeStyle=orthogonalEdgeStyle;html=1;verticalAlign=bottom;endArrow=open;endSize=8;strokeColor=#ff0000;rounded=0;entryX=0.5;entryY=0;entryDx=0;entryDy=0;" edge="1" parent="1" target="7cOphT0cGEknBKYI4k1w-1">
          <mxGeometry relative="1" as="geometry">
            <mxPoint x="225" y="350" as="targetPoint" />
            <mxPoint x="215" y="460" as="sourcePoint" />
          </mxGeometry>
        </mxCell>
        <mxCell id="7cOphT0cGEknBKYI4k1w-4" value="press Mount" style="rounded=1;whiteSpace=wrap;html=1;arcSize=40;fontColor=#000000;fillColor=#ffffc0;strokeColor=#ff0000;fontFamily=Helvetica;fontSize=6;" vertex="1" parent="1">
          <mxGeometry x="155" y="580" width="120" height="25" as="geometry" />
        </mxCell>
        <mxCell id="7cOphT0cGEknBKYI4k1w-5" value="yes" style="edgeStyle=orthogonalEdgeStyle;html=1;align=left;verticalAlign=top;endArrow=open;endSize=8;strokeColor=#ff0000;rounded=0;startArrow=none;exitX=0.5;exitY=1;exitDx=0;exitDy=0;entryX=0.5;entryY=0;entryDx=0;entryDy=0;" edge="1" parent="1" source="7cOphT0cGEknBKYI4k1w-1" target="7cOphT0cGEknBKYI4k1w-4">
          <mxGeometry x="-1" y="-36" relative="1" as="geometry">
            <mxPoint x="225" y="430" as="targetPoint" />
            <Array as="points" />
            <mxPoint x="225" y="410" as="sourcePoint" />
            <mxPoint x="1" y="-10" as="offset" />
          </mxGeometry>
        </mxCell>
        <mxCell id="7cOphT0cGEknBKYI4k1w-6" value="no" style="edgeStyle=orthogonalEdgeStyle;html=1;align=left;verticalAlign=bottom;endArrow=open;endSize=8;strokeColor=#ff0000;rounded=0;exitX=1;exitY=0.5;exitDx=0;exitDy=0;" edge="1" parent="1" source="7cOphT0cGEknBKYI4k1w-1">
          <mxGeometry x="-1" relative="1" as="geometry">
            <mxPoint x="215" y="620" as="targetPoint" />
            <Array as="points">
              <mxPoint x="330" y="520" />
              <mxPoint x="330" y="620" />
            </Array>
            <mxPoint x="290" y="380" as="sourcePoint" />
          </mxGeometry>
        </mxCell>
        <mxCell id="7cOphT0cGEknBKYI4k1w-7" value="RandomJump" style="rounded=1;whiteSpace=wrap;html=1;arcSize=40;fontColor=#000000;fillColor=#ffffc0;strokeColor=#ff0000;fontFamily=Helvetica;fontSize=6;" vertex="1" parent="1">
          <mxGeometry x="155" y="835" width="120" height="40" as="geometry" />
        </mxCell>
        <mxCell id="7cOphT0cGEknBKYI4k1w-8" value="" style="edgeStyle=orthogonalEdgeStyle;html=1;verticalAlign=bottom;endArrow=open;endSize=8;strokeColor=#ff0000;rounded=0;entryX=0.5;entryY=0;entryDx=0;entryDy=0;exitX=0.5;exitY=1;exitDx=0;exitDy=0;" edge="1" parent="1" source="7cOphT0cGEknBKYI4k1w-4" target="Mo9y_Z-Vakp0Shs6qQip-12">
          <mxGeometry relative="1" as="geometry">
            <mxPoint x="225" y="500" as="targetPoint" />
            <mxPoint x="225" y="470" as="sourcePoint" />
          </mxGeometry>
        </mxCell>
        <mxCell id="7cOphT0cGEknBKYI4k1w-9" value="" style="edgeStyle=orthogonalEdgeStyle;html=1;verticalAlign=bottom;endArrow=open;endSize=8;strokeColor=#ff0000;rounded=0;fontFamily=Helvetica;fontSize=6;entryX=0.5;entryY=0;entryDx=0;entryDy=0;exitX=0.5;exitY=1;exitDx=0;exitDy=0;" edge="1" parent="1" source="Mo9y_Z-Vakp0Shs6qQip-20" target="7cOphT0cGEknBKYI4k1w-7">
          <mxGeometry relative="1" as="geometry">
            <mxPoint x="225" y="700" as="targetPoint" />
            <mxPoint x="225" y="670" as="sourcePoint" />
          </mxGeometry>
        </mxCell>
      </root>
    </mxGraphModel>
  </diagram>
</mxfile>
